<svg width="40" height="40" viewBox="0 0 40 40" fill="none" xmlns="http://www.w3.org/2000/svg">
<rect width="40" height="40" fill="#A2A2A2"/>
<g clip-path="url(#clip0_4522_3137)">
<path fill-rule="evenodd" clip-rule="evenodd" d="M19 12.0857C18.2525 11.5588 17.0858 11 15.5 11C13.6126 11 12.1209 11.7917 11.2742 12.3788C11.0685 12.5215 10.9657 12.5928 10.8291 12.7634C10.7307 12.8862 10.6073 13.122 10.5624 13.2729C10.5 13.4823 10.5 13.6529 10.5 13.9941V27.0686C10.5 27.7278 10.5 28.0574 10.5927 28.1875C10.6855 28.3179 10.7778 28.3732 10.9365 28.3935C11.095 28.4138 11.4212 28.2393 12.0735 27.8902C12.9347 27.4294 14.11 27 15.5 27C17.0858 27 18.2525 27.5588 19 28.0857V12.0857ZM21 28.0857C21.7475 27.5588 22.9142 27 24.5 27C25.89 27 27.0653 27.4294 27.9265 27.8902C28.5788 28.2393 28.905 28.4138 29.0635 28.3935C29.2222 28.3732 29.3145 28.3179 29.4073 28.1875C29.5 28.0574 29.5 27.7278 29.5 27.0686V13.9941C29.5 13.6529 29.5 13.4823 29.4376 13.2729C29.3927 13.122 29.2693 12.8862 29.1709 12.7634C29.0343 12.5928 28.9315 12.5215 28.7258 12.3788C27.8791 11.7917 26.3874 11 24.5 11C22.9142 11 21.7475 11.5588 21 12.0857V28.0857Z" fill="white"/>
</g>
<defs>
<clipPath id="clip0_4522_3137">
<rect width="24" height="24" fill="white" transform="translate(8 8)"/>
</clipPath>
</defs>
</svg>
